<svg width="512" height="512" viewBox="0 0 512 512" fill="none" xmlns="http://www.w3.org/2000/svg">
  <rect width="512" height="512" rx="80" fill="#3B82F6"/>
  <path d="M160 160L373.33 128V310.43C373.33 332.50 354.69 350.33 331.60 350.33C308.51 350.33 289.87 332.50 289.87 310.43C289.87 288.35 308.51 270.52 331.60 270.52C338.77 270.52 345.51 272.15 351.51 274.99V175.96L202.67 200V342.43C202.67 364.50 184.02 382.33 160.93 382.33C137.84 382.33 119.20 364.50 119.20 342.43C119.20 320.35 137.84 302.52 160.93 302.52C168.10 302.52 174.85 304.15 180.84 306.99V179.71L160 160Z" fill="white"/>
</svg>
