<svg width="192" height="192" viewBox="0 0 192 192" fill="none" xmlns="http://www.w3.org/2000/svg">
  <rect width="192" height="192" rx="32" fill="#3B82F6"/>
  <path d="M60 60L140 48V116.66C140 124.94 133.01 131.75 124.35 131.75C115.69 131.75 108.7 124.94 108.7 116.66C108.7 108.38 115.69 101.57 124.35 101.57C127.04 101.57 129.57 102.18 131.82 103.27V66.11L76 75V128.66C76 136.94 69.01 143.75 60.35 143.75C51.69 143.75 44.7 136.94 44.7 128.66C44.7 120.38 51.69 113.57 60.35 113.57C63.04 113.57 65.57 114.18 67.82 115.27V67.39L60 60Z" fill="white"/>
</svg>
